<?xml version="1.0" encoding="UTF-8"?>
<svg xmlns="http://www.w3.org/2000/svg" viewBox="0 0 600 600">
  <path fill="#79bec9" d="M392.01,277.44c-19.86-19.85-45.38-31.9-72.86-34.62-5.57-.55-10.29,4.13-10.29,9.73v219.44c0,5.59,4.72,10.28,10.29,9.73,27.47-2.72,52.99-14.77,72.86-34.62,22.69-22.56,35.2-52.69,35.2-84.82s-12.51-62.26-35.2-84.82Z"/>
  <path fill="#ffcb39" d="M242.89,116.59c-38.65,0-70.1,31.45-70.1,70.11s31.45,70.11,70.1,70.11,70.11-31.45,70.11-70.11-31.45-70.11-70.11-70.11Z"/>
  <path fill="#79bec9" d="M242.89,263.55c-19.6,0-37.5-7.38-51.09-19.49-3.15-2.81-8.08-.68-8.08,3.55v114.74c0,61.88,47.07,112.98,107.29,119.36,5.86.62,11.06-3.8,11.06-9.69v-224.41c0-4.22-4.93-6.36-8.08-3.55-13.59,12.12-31.5,19.5-51.1,19.5Z"/>
  <circle fill="#ffcb39" cx="417.27" cy="473.47" r="9.94"/>
</svg>
